<svg width="24" height="22" viewBox="0 0 24 22" fill="none" xmlns="http://www.w3.org/2000/svg">
<path d="M9.98206 5.87101C9.52906 6.32501 9.52906 7.04501 9.98206 7.49901L12.191 9.70801H1.49402C0.855019 9.70801 0.332031 10.231 0.332031 10.871C0.332031 11.51 0.855019 12.033 1.49402 12.033H12.191L9.98206 14.243C9.52906 14.696 9.52906 15.417 9.98206 15.87C10.4361 16.324 11.156 16.324 11.61 15.87L15.7841 11.696C16.2371 11.243 16.2371 10.51 15.7841 10.056L11.61 5.87101C11.156 5.41801 10.4361 5.41801 9.98206 5.87101ZM21.261 19.009H13.1219C12.4819 19.009 11.959 19.533 11.959 20.172C11.959 20.812 12.4819 21.335 13.1219 21.335H21.261C22.54 21.335 23.5861 20.288 23.5861 19.009V2.73201C23.5861 1.45301 22.54 0.406006 21.261 0.406006H13.1219C12.4819 0.406006 11.959 0.930008 11.959 1.56901C11.959 2.20901 12.4819 2.73201 13.1219 2.73201H21.261V19.009Z" fill="#133F85"/>
</svg>
